<svg xmlns="http://www.w3.org/2000/svg" width="200" height="200" viewBox="0 0 200 200"><path fill="#73C7DE" d="M45.3 71.2c0 .1.1.2.1.3 0-.1-.1-.2-.1-.3z"/><path fill="#73C7DE" d="M66.3 84c6.4 0 12.8-2.8 17-7 0 0 6.6-6.7 15.7-15.8L48.6 10.3s-5.1-3.4-8.2-3.4c-6.2 0-11.3 5-11.3 11.3 0 1.3.2 2.5.6 3.7l13.6 44.6c.5 1.6 1.1 3.1 1.7 4.6C48.9 78.8 57.1 84 66.3 84z"/><path fill="#262835" d="M45 70.7c3.6 8.1 8.7 12.9 13.4 16.3 2.6 1.9 4.8 3 6 3.5 5.7 2.3 11.2 4 16.9 4h35.2c18 0 33.2-11.8 38.2-28.1l13.6-44.6c.4-1.1.6-2.4.6-3.7 0-6.2-5.1-11.3-11.3-11.3-3 0-8.2 3.4-8.2 3.4L83.4 77c-4.2 4.2-10.6 7-17 7C57 84 48.7 78.7 45 70.7z"/><path fill="#711F03" d="M152.8 132.2c0-.1-.1-.2-.1-.3 0 .1.1.2.1.3z"/><path fill="#711F03" d="M131.7 119.4c-6.4 0-12.8 2.8-17 7 0 0-6.6 6.7-15.7 15.8l50.4 50.9s5.1 3.4 8.2 3.4c6.2 0 11.3-5 11.3-11.3 0-1.3-.2-2.5-.6-3.7L154.7 137c-.5-1.6-1.1-3.1-1.7-4.6-3.8-7.8-12-13-21.3-13z"/><path fill="#E77636" d="M153 132.6c-3.6-8.1-8.7-12.9-13.4-16.3-2.6-1.9-4.8-3-6-3.5-5.7-2.3-11.2-4-16.9-4H81.5c-18 0-33.2 11.8-38.2 28.1l-13.6 44.6c-.4 1.1-.6 2.4-.6 3.7 0 6.2 5.1 11.3 11.3 11.3 3 0 8.2-3.4 8.2-3.4l66.1-66.7c4.2-4.2 10.6-7 17-7 9.4 0 17.7 5.3 21.3 13.2z"/></svg>