<?xml version="1.0" standalone="no"?>
<!DOCTYPE svg PUBLIC "-//W3C//DTD SVG 20010904//EN"
 "http://www.w3.org/TR/2001/REC-SVG-20010904/DTD/svg10.dtd">
<svg version="1.0" xmlns="http://www.w3.org/2000/svg"
 width="500.000000pt" height="500.000000pt" viewBox="0 0 500.000000 500.000000"
 preserveAspectRatio="xMidYMid meet">
<metadata>
Created by potrace 1.11, written by Peter Selinger 2001-2013
</metadata>
<g transform="translate(0.000000,500.000000) scale(0.100000,-0.100000)"
fill="#000000" stroke="none">
<path d="M883 4955 c-119 -35 -198 -133 -209 -258 -5 -55 0 -81 46 -232 28
-93 57 -190 65 -215 7 -25 54 -180 105 -345 51 -165 96 -313 100 -330 21 -80
84 -262 104 -299 66 -121 124 -201 204 -281 70 -71 179 -153 251 -190 39 -20
211 -83 243 -89 13 -3 54 -11 91 -19 56 -12 168 -14 635 -12 312 1 581 5 597
8 368 72 643 281 788 601 21 46 102 290 122 366 3 14 25 86 76 250 11 36 22
72 24 80 2 8 20 67 40 130 20 63 38 122 39 130 2 8 28 89 56 180 65 204 72
285 33 368 -50 105 -160 173 -272 168 -52 -2 -80 -12 -181 -67 -24 -13 -285
-274 -1052 -1053 l-295 -298 -56 58 c-72 76 -577 587 -955 968 -163 164 -315
311 -337 326 -81 56 -184 78 -262 55z m1287 -1739 c0 -2 -8 -10 -17 -17 -16
-13 -17 -12 -4 4 13 16 21 21 21 13z"/>
<path d="M1949 2306 c-2 -2 -29 -6 -59 -10 -73 -8 -92 -12 -169 -37 -166 -53
-291 -130 -422 -259 -85 -83 -137 -155 -193 -266 -41 -82 -62 -145 -147 -429
-17 -55 -39 -127 -50 -160 -11 -33 -22 -69 -25 -80 -2 -11 -34 -114 -69 -230
-36 -116 -67 -217 -69 -226 -3 -9 -11 -36 -19 -60 -80 -238 -73 -334 33 -439
83 -84 174 -108 276 -73 95 32 145 74 397 327 697 704 1047 1055 1057 1061 6
4 100 -83 228 -214 119 -121 417 -421 662 -668 410 -412 451 -451 515 -482
114 -56 205 -50 306 18 105 71 144 220 95 359 -8 23 -15 45 -15 47 0 3 -10 36
-21 73 -12 37 -23 74 -25 82 -3 13 -31 103 -130 425 -13 44 -38 123 -54 175
-16 52 -42 136 -56 185 -59 200 -87 269 -153 380 -41 68 -39 64 -89 124 -59
69 -110 117 -182 171 -90 68 -160 103 -282 144 -187 63 -216 65 -805 65 -292
1 -533 -1 -535 -3z"/>
</g>
</svg>
