<!DOCTYPE svg PUBLIC "-//W3C//DTD SVG 1.1//EN" "http://www.w3.org/Graphics/SVG/1.1/DTD/svg11.dtd">
<svg version="1.1" id="Layer_1" xmlns="http://www.w3.org/2000/svg" xmlns:xlink="http://www.w3.org/1999/xlink" x="0px" y="0px"
	 width="200px" height="200px" viewBox="0 0 200 200" enable-background="new 0 0 200 200" xml:space="preserve">
<g>
	<g>
		<path fill="#73C7DE" d="M45.3,71.2c0,0.1,0.1,0.2,0.1,0.3C45.4,71.4,45.3,71.3,45.3,71.2z"/>
	</g>
	<g>
		<path fill="#73C7DE" d="M66.3,84c6.4,0,12.8-2.8,17-7c0,0,6.6-6.7,15.7-15.8L48.6,10.3c0,0-5.1-3.4-8.2-3.4
			c-6.2,0-11.3,5-11.3,11.3c0,1.3,0.2,2.5,0.6,3.7l13.6,44.6c0.5,1.6,1.1,3.1,1.7,4.6C48.9,78.8,57.1,84,66.3,84z"/>
	</g>
</g>
<path fill="#262835" d="M45,70.7c3.6,8.1,8.7,12.9,13.4,16.3c2.6,1.9,4.8,3,6,3.5c5.7,2.3,11.2,4,16.9,4v0l35.2,0
	c18,0,33.2-11.8,38.2-28.1l13.6-44.6c0.4-1.1,0.6-2.4,0.6-3.7c0-6.2-5.1-11.3-11.3-11.3c-3,0-8.2,3.4-8.2,3.4L83.4,77
	c-4.2,4.2-10.6,7-17,7C57,84,48.7,78.7,45,70.7z"/>
<g>
	<g>
		<path fill="#711F03" d="M152.8,132.2c0-0.1-0.1-0.2-0.1-0.3C152.7,132,152.8,132.1,152.8,132.2z"/>
	</g>
	<g>
		<path fill="#711F03" d="M131.7,119.4c-6.4,0-12.8,2.8-17,7c0,0-6.6,6.7-15.7,15.8l50.4,50.9c0,0,5.1,3.4,8.2,3.4
			c6.2,0,11.3-5,11.3-11.3c0-1.3-0.2-2.5-0.6-3.7L154.7,137c-0.5-1.6-1.1-3.1-1.7-4.6C149.2,124.6,141,119.4,131.7,119.4z"/>
	</g>
</g>
<path fill="#E77636" d="M153,132.6c-3.6-8.1-8.7-12.9-13.4-16.3c-2.6-1.9-4.8-3-6-3.5c-5.7-2.3-11.2-4-16.9-4v0l-35.2,0
	c-18,0-33.2,11.8-38.2,28.1l-13.6,44.6c-0.4,1.1-0.6,2.4-0.6,3.7c0,6.2,5.1,11.3,11.3,11.3c3,0,8.2-3.4,8.2-3.4l66.1-66.7
	c4.2-4.2,10.6-7,17-7C141.1,119.4,149.4,124.7,153,132.6z"/>
</svg>
